<svg width="42" height="64" viewBox="0 0 42 64" fill="none" xmlns="http://www.w3.org/2000/svg">
<g filter="url(#filter0_i_58_30)">
<path d="M36.0404 36.9706L7.95055 21.5808C4.30763 19.5848 0.000488281 22.4504 0.000488281 26.8705V42.2603V57.6502C0.000488281 62.0703 4.30763 64.9358 7.95055 62.9399L36.0404 47.5501C40.0451 45.356 40.0451 39.1647 36.0404 36.9706Z" fill="url(#paint0_linear_58_30)"/>
<path d="M9.10592 14.5987L24.5138 23.0396C26.5117 24.1341 28.8743 22.5625 28.8743 20.1384V11.6974V3.25644C28.8743 0.832322 26.5117 -0.739973 24.5138 0.354477L9.10592 8.79621C6.90935 9.99899 6.90935 13.3951 9.10592 14.5987Z" fill="url(#paint1_linear_58_30)"/>
<path d="M32.2282 27.6713L39.8172 31.8288C40.8017 32.3682 41.9649 31.5935 41.9649 30.3997V26.2422V22.0848C41.9649 20.8909 40.801 20.1163 39.8172 20.6557L32.2282 24.8131C31.1466 25.406 31.1466 27.0785 32.2282 27.6713Z" fill="url(#paint2_linear_58_30)"/>
<path d="M7.95006 29.7428L36.0406 45.1326C36.6293 45.4554 37.1208 45.8717 37.5366 46.3413C39.9482 43.6145 39.4567 38.8419 36.0406 36.9706L7.95006 21.5808C4.30715 19.5848 0 22.4504 0 26.8705V35.0325C0.000741333 30.6132 4.30715 27.7476 7.95006 29.7428Z" fill="url(#paint3_linear_58_30)"/>
<path d="M24.5135 0.35457L9.10562 8.7963C6.97429 9.96421 6.91722 13.1897 8.92178 14.48C8.98331 14.4407 9.04039 14.3969 9.10562 14.3613L24.5135 5.91957C26.5114 4.82512 28.874 6.39668 28.874 8.82079V3.25579C28.874 0.831679 26.5114 -0.73988 24.5135 0.35457Z" fill="url(#paint4_linear_58_30)"/>
<path d="M39.8172 20.6549L32.2282 24.8124C31.1466 25.4052 31.1466 27.0777 32.2282 27.6705L33.2312 28.2204L39.8165 24.612C40.801 24.0726 41.9641 24.8472 41.9641 26.0411V22.084C41.9649 20.8902 40.801 20.1162 39.8172 20.6549Z" fill="url(#paint5_linear_58_30)"/>
</g>
<defs>
<filter id="filter0_i_58_30" x="0" y="0" width="41.9648" height="67.5864" filterUnits="userSpaceOnUse" color-interpolation-filters="sRGB">
<feFlood flood-opacity="0" result="BackgroundImageFix"/>
<feBlend mode="normal" in="SourceGraphic" in2="BackgroundImageFix" result="shape"/>
<feColorMatrix in="SourceAlpha" type="matrix" values="0 0 0 0 0 0 0 0 0 0 0 0 0 0 0 0 0 0 127 0" result="hardAlpha"/>
<feOffset dy="4"/>
<feGaussianBlur stdDeviation="2"/>
<feComposite in2="hardAlpha" operator="arithmetic" k2="-1" k3="1"/>
<feColorMatrix type="matrix" values="0 0 0 0 0 0 0 0 0 0 0 0 0 0 0 0 0 0 0.25 0"/>
<feBlend mode="normal" in2="shape" result="effect1_innerShadow_58_30"/>
</filter>
<linearGradient id="paint0_linear_58_30" x1="19.5222" y1="20.9341" x2="19.5222" y2="71.2423" gradientUnits="userSpaceOnUse">
<stop stop-color="#F2BA64"/>
<stop offset="1" stop-color="#DE9017"/>
</linearGradient>
<linearGradient id="paint1_linear_58_30" x1="18.1664" y1="0" x2="18.1664" y2="27.5933" gradientUnits="userSpaceOnUse">
<stop stop-color="#F2BA64"/>
<stop offset="1" stop-color="#DE9017"/>
</linearGradient>
<linearGradient id="paint2_linear_58_30" x1="36.6909" y1="20.481" x2="36.6909" y2="34.0717" gradientUnits="userSpaceOnUse">
<stop stop-color="#F2BA64"/>
<stop offset="1" stop-color="#DE9017"/>
</linearGradient>
<linearGradient id="paint3_linear_58_30" x1="19.5188" y1="20.9341" x2="19.5188" y2="50.9017" gradientUnits="userSpaceOnUse">
<stop stop-color="#F2BA64"/>
<stop offset="1" stop-color="#DE9017"/>
</linearGradient>
<linearGradient id="paint4_linear_58_30" x1="18.1677" y1="0" x2="18.1677" y2="17.0791" gradientUnits="userSpaceOnUse">
<stop stop-color="#F2BA64"/>
<stop offset="1" stop-color="#DE9017"/>
</linearGradient>
<linearGradient id="paint5_linear_58_30" x1="36.6906" y1="20.4805" x2="36.6906" y2="29.6096" gradientUnits="userSpaceOnUse">
<stop stop-color="#F2BA64"/>
<stop offset="1" stop-color="#DE9017"/>
</linearGradient>
</defs>
</svg>
